HIERARCHY
ROOT joint_Root
{
  OFFSET 0 0 0
  CHANNELS 6 Xposition Yposition Zposition Zrotation Xrotation Yrotation
  JOINT Hips
  {
    OFFSET 0.847027 93.984 -452.225
    CHANNELS 6 Xposition Yposition Zposition Zrotation Xrotation Yrotation
    JOINT Spine
    {
      OFFSET 15.7357 0 0
      CHANNELS 6 Xposition Yposition Zposition Zrotation Xrotation Yrotation
      JOINT Chest
      {
        OFFSET 8.98455 -0.406207 0
        CHANNELS 6 Xposition Yposition Zposition Zrotation Xrotation Yrotation
        JOINT Neck
        {
          OFFSET 16.3773 0 0
          CHANNELS 6 Xposition Yposition Zposition Zrotation Xrotation Yrotation
          JOINT Head
          {
            OFFSET 6.45672 0 0
            CHANNELS 6 Xposition Yposition Zposition Zrotation Xrotation Yrotation
            End Site
            {
              OFFSET 0 0 0
            }
          }
        }
        JOINT Shoulder_L
        {
          OFFSET 12.9942 -0.242716 4.98039
          CHANNELS 6 Xposition Yposition Zposition Zrotation Xrotation Yrotation
          JOINT UpperArm_L
          {
            OFFSET 5.34809 0 0
            CHANNELS 6 Xposition Yposition Zposition Zrotation Xrotation Yrotation
            JOINT LowerArm_L
            {
              OFFSET 24.3286 1.87007e-05 0
              CHANNELS 6 Xposition Yposition Zposition Zrotation Xrotation Yrotation
              JOINT Hand_L
              {
                OFFSET 22.2916 0 0
                CHANNELS 6 Xposition Yposition Zposition Zrotation Xrotation Yrotation
                End Site
                {
                  OFFSET 0 0 0
                }
              }
            }
          }
        }
        JOINT Shoulder_R
        {
          OFFSET 12.9945 -0.242716 -4.98039
          CHANNELS 6 Xposition Yposition Zposition Zrotation Xrotation Yrotation
          JOINT UpperArm_R
          {
            OFFSET -5.34813 0 0
            CHANNELS 6 Xposition Yposition Zposition Zrotation Xrotation Yrotation
            JOINT LowerArm_R
            {
              OFFSET -24.3289 0.000322201 0
              CHANNELS 6 Xposition Yposition Zposition Zrotation Xrotation Yrotation
              JOINT Hand_R
              {
                OFFSET -22.2915 -0.000108084 0
                CHANNELS 6 Xposition Yposition Zposition Zrotation Xrotation Yrotation
                End Site
                {
                  OFFSET 0 0 0
                }
              }
            }
          }
        }
      }
    }
    JOINT UpperLeg_L
    {
      OFFSET -2.19248 -6.46944 0
      CHANNELS 6 Xposition Yposition Zposition Zrotation Xrotation Yrotation
      JOINT LowerLeg_L
      {
        OFFSET 39.0811 0 -1.23785e-05
        CHANNELS 6 Xposition Yposition Zposition Zrotation Xrotation Yrotation
        JOINT Foot_L
        {
          OFFSET 40.9854 0 -1.26872e-05
          CHANNELS 6 Xposition Yposition Zposition Zrotation Xrotation Yrotation
          JOINT Toes_L
          {
            OFFSET 11.7543 0 0
            CHANNELS 6 Xposition Yposition Zposition Zrotation Xrotation Yrotation
            End Site
            {
              OFFSET 0 0 0
            }
          }
        }
      }
    }
    JOINT UpperLeg_R
    {
      OFFSET -2.19251 6.46944 0
      CHANNELS 6 Xposition Yposition Zposition Zrotation Xrotation Yrotation
      JOINT LowerLeg_R
      {
        OFFSET -39.0811 -0.00228153 -0.0401928
        CHANNELS 6 Xposition Yposition Zposition Zrotation Xrotation Yrotation
        JOINT Foot_R
        {
          OFFSET -40.9854 0 0
          CHANNELS 6 Xposition Yposition Zposition Zrotation Xrotation Yrotation
          JOINT Toes_R
          {
            OFFSET -11.7543 0 0
            CHANNELS 6 Xposition Yposition Zposition Zrotation Xrotation Yrotation
            End Site
            {
              OFFSET 0 0 0
            }
          }
        }
      }
    }
  }
}
MOTION
Frames:	6
Frame Time:	0.0333333
0 0 0 0 0 -0 -3.3354 88.9394 264.061 90.8149 -1.96121 3.78988 15.7357 5.1072e-06 -5.51765e-07 87.2646 81.795 -87.2373 8.98455 -0.406207 -4.3199e-07 8.62601 -0.77911 0.113453 16.3773 -1.3905e-06 -6.99897e-07 -2.85715 -3.60833 2.83339 6.45672 -1.25837e-06 -1.02172e-07 -10.4698 -1.99715 1.78947 12.9942 -0.242716 4.98039 -90.7305 2.53901 -88.9447 5.34809 -7.22636e-06 -6.2814e-07 -72.7734 13.367 1.06589 24.3286 1.87007e-05 4.90208e-06 1.01494 2.87166 -19.477 22.2916 -9.88446e-07 4.63217e-06 15.3189 5.5464 -8.53754 12.9945 -0.242716 -4.98039 88.1972 10.3167 -95.0319 -5.34813 -1.25947e-06 -3.79883e-06 -61.854 12.5269 -2.56397 -24.3289 0.000322201 -8.65921e-06 8.93477 13.2588 -34.4334 -22.2915 -0.000108084 -4.47941e-06 9.38607 5.40159 -2.98851 -2.19248 -6.46944 -1.22533e-07 -173.325 -3.35285 -21.7333 39.0811 -6.73843e-06 -1.23785e-05 0.203412 -0.15258 51.5594 40.9854 -6.48686e-06 -1.26872e-05 -7.31539 7.74444 -63.4932 11.7543 -2.30145e-07 3.05095e-06 0.0818016 -0.131814 -18.9086 -2.19251 6.46944 -1.45247e-06 177.881 3.59145 156.602 -39.0811 -0.00228153 -0.0401928 0.107689 -0.114852 38.4479 -40.9854 7.72618e-06 5.99936e-06 -0.755138 -2.42215 -61.5892 -11.7543 -5.6619e-06 -5.58687e-06 0.141981 -0.162307 -18.1598 
0 0 0 0 0 -0 -2.9538 88.8769 263.044 90.4003 -1.71053 3.46489 15.7357 5.1072e-06 -5.51765e-07 85.6628 81.9783 -85.7171 8.98455 -0.406207 -4.3199e-07 8.23219 -1.20806 -0.0215899 16.3773 -1.3905e-06 -6.99897e-07 -3.12301 -3.75218 2.82004 6.45672 -1.25837e-06 -1.02172e-07 -11.0399 -1.97869 2.14634 12.9942 -0.242716 4.98039 -90.6568 2.31312 -89.1434 5.34809 -7.22636e-06 -6.2814e-07 -72.0999 14.059 -0.565612 24.3286 1.87007e-05 4.90207e-06 0.936316 2.43875 -21.0115 22.2916 -9.88446e-07 4.63217e-06 15.7992 5.54783 -8.60513 12.9945 -0.242716 -4.98039 88.1162 10.5423 -94.8091 -5.34813 -1.25947e-06 -3.79883e-06 -62.6543 12.6943 0.0832913 -24.3289 0.000322201 -8.65921e-06 8.82151 13.4331 -33.748 -22.2915 -0.000108084 -4.47941e-06 8.87208 5.40515 -3.10679 -2.19248 -6.46944 -1.22533e-07 -172.979 -2.52912 -19.9262 39.0811 -6.73843e-06 -1.23785e-05 0.212404 -0.150005 52.9446 40.9854 -6.48686e-06 -1.26872e-05 -6.99608 8.13442 -63.7367 11.7543 -2.30145e-07 3.05095e-06 0.105969 -0.173175 -19.6283 -2.19251 6.46944 -1.45247e-06 178.085 3.74739 155.836 -39.0811 -0.00228153 -0.0401928 0.110735 -0.122384 37.8664 -40.9854 7.72618e-06 5.99936e-06 -0.931867 -2.43401 -60.5305 -11.7543 -5.6619e-06 -5.58687e-06 0.155808 -0.178606 -18.3169 
0 0 0 0 0 -0 -2.48738 88.606 261.808 89.9082 -1.40552 3.09675 15.7357 5.1072e-06 -5.51765e-07 84.1947 82.1081 -84.3143 8.98455 -0.406207 -4.3199e-07 7.9374 -1.58993 -0.128687 16.3773 -1.3905e-06 -6.99897e-07 -3.30776 -3.90696 2.79102 6.45672 -1.25837e-06 -1.02172e-07 -11.5683 -2.03385 2.50921 12.9942 -0.242716 4.98039 -90.5636 2.02629 -89.4529 5.34809 -7.22636e-06 -6.2814e-07 -71.2241 14.726 -2.62035 24.3286 1.87007e-05 4.90208e-06 0.846501 2.0216 -22.727 22.2916 -9.88446e-07 4.63217e-06 16.1984 5.55049 -8.72954 12.9945 -0.242716 -4.98039 88.0513 10.6443 -94.5628 -5.34813 -1.25947e-06 -3.79883e-06 -63.4275 12.5454 2.46361 -24.3289 0.000322201 -8.65921e-06 8.76245 13.7748 -32.9199 -22.2915 -0.000108084 -4.47941e-06 8.37768 5.40388 -3.06492 -2.19248 -6.46944 -1.22533e-07 -172.902 -1.83441 -17.8953 39.0811 -6.73843e-06 -1.23785e-05 0.189014 -0.131496 52.6209 40.9854 -6.48686e-06 -1.26872e-05 -5.12275 7.84557 -64.9725 11.7543 -2.30145e-07 3.05095e-06 0.25322 -0.45549 -24.4134 -2.19251 6.46944 -1.45247e-06 178.325 4.0141 154.514 -39.0811 -0.00228153 -0.0401928 0.108089 -0.119191 37.9261 -40.9854 7.72618e-06 5.99936e-06 -1.1533 -2.45086 -59.5947 -11.7543 -5.6619e-06 -5.58687e-06 0.143033 -0.163539 -18.1717 
0 0 0 0 0 -0 -1.9327 88.1623 260.207 89.4258 -1.01367 2.74448 15.7357 5.1072e-06 -5.51765e-07 82.606 82.0983 -82.8201 8.98455 -0.406207 -4.3199e-07 7.90594 -2.0255 -0.287707 16.3773 -1.3905e-06 -6.99897e-07 -3.58022 -4.06596 2.75194 6.45672 -1.25837e-06 -1.02172e-07 -12.0925 -2.01961 2.96799 12.9942 -0.242716 4.98039 -90.4987 1.81938 -89.6693 5.34809 -7.22636e-06 -6.2814e-07 -69.8825 15.4358 -5.18406 24.3286 1.87007e-05 4.90208e-06 0.733076 1.5859 -24.815 22.2916 -9.88446e-07 4.63217e-06 16.6869 5.5506 -8.73325 12.9945 -0.242716 -4.98039 87.988 10.8633 -94.4413 -5.34813 -1.25947e-06 -3.79883e-06 -63.8423 12.1383 4.35076 -24.3289 0.000322201 -8.65921e-06 8.67553 14.1401 -31.9921 -22.2915 -0.000108084 -4.47941e-06 8.00243 5.39985 -2.93197 -2.19248 -6.46944 -1.22533e-07 -173.029 -1.1775 -15.6962 39.0811 -6.73843e-06 -1.23785e-05 0.127313 -0.094504 48.969 40.9854 -6.48686e-06 -1.26872e-05 -3.18757 6.94319 -70.2863 11.7543 -2.30145e-07 3.05095e-06 0.247266 -0.442886 -24.204 -2.19251 6.46944 -1.45247e-06 178.512 4.43464 152.735 -39.0811 -0.00228153 -0.0401928 0.109493 -0.120657 38.3377 -40.9854 7.72618e-06 5.99936e-06 -1.38773 -2.35083 -58.5344 -11.7543 -5.6619e-06 -5.58687e-06 0.140042 -0.16002 -18.1377 
0 0 0 0 0 -0 -1.28658 87.664 258.301 89.2688 -0.264041 2.50097 15.7357 5.1072e-06 -5.51764e-07 80.6465 81.8864 -81.0835 8.98455 -0.406207 -4.3199e-07 8.2419 -2.62725 -0.683985 16.3773 -1.3905e-06 -6.99897e-07 -3.96105 -4.29262 2.74106 6.45672 -1.25837e-06 -1.02172e-07 -12.7287 -2.02261 3.41085 12.9942 -0.242716 4.98039 -90.4932 1.83922 -89.9866 5.34809 -7.22636e-06 -6.2814e-07 -67.8517 16.0678 -8.13633 24.3286 1.87007e-05 4.90208e-06 0.64416 1.2403 -27.45 22.2916 -9.88446e-07 4.63217e-06 17.6073 5.54955 -8.68455 12.9945 -0.242716 -4.98039 87.8906 11.2402 -94.2997 -5.34813 -1.25947e-06 -3.79883e-06 -63.9933 11.0062 5.59421 -24.3289 0.000322201 -8.65921e-06 8.7057 14.7918 -30.9572 -22.2915 -0.000108084 -4.47941e-06 7.54082 5.39574 -2.79971 -2.19248 -6.46944 -1.22533e-07 -173.759 -0.664272 -15.1039 39.0811 -6.73843e-06 -1.23785e-05 0.0849574 -0.0643178 46.2225 40.9854 -6.48686e-06 -1.26872e-05 -1.34879 5.31989 -75.2972 11.7543 -2.30145e-07 3.05095e-06 0.101789 -0.165937 -19.5028 -2.19251 6.46944 -1.45247e-06 178.301 5.2379 150.878 -39.0811 -0.00228153 -0.0401928 0.109327 -0.121564 38.709 -40.9854 7.72618e-06 5.99936e-06 -1.6591 -2.20736 -57.2368 -11.7543 -5.6619e-06 -5.58687e-06 0.145552 -0.166511 -18.2003 
0 0 0 0 0 -0 -0.663002 87.2395 256.156 89.5048 0.792958 2.306 15.7357 5.1072e-06 -5.51765e-07 78.6806 81.5579 -79.4927 8.98455 -0.406207 -4.3199e-07 8.7775 -3.30449 -1.3694 16.3773 -1.3905e-06 -6.99897e-07 -4.27609 -4.56981 2.59359 6.45672 -1.25837e-06 -1.02172e-07 -13.4182 -2.17505 3.9547 12.9942 -0.242716 4.98039 -90.495 1.89498 -90.3577 5.34809 -7.22636e-06 -6.2814e-07 -65.4455 16.2898 -11.338 24.3286 1.87007e-05 4.90208e-06 0.637242 1.08663 -30.3963 22.2916 -9.88446e-07 4.63217e-06 18.4983 5.55198 -8.79775 12.9945 -0.242716 -4.98039 87.7331 11.7803 -94.0268 -5.34813 -1.25947e-06 -3.79883e-06 -63.9771 9.64427 6.35595 -24.3289 0.000322201 -8.65921e-06 8.73578 15.4963 -29.908 -22.2915 -0.000108084 -4.47941e-06 7.3473 5.3883 -2.56084 -2.19248 -6.46944 -1.22534e-07 -174.614 1.09996 -17.2814 39.0811 -6.73843e-06 -1.23785e-05 0.0826448 -0.0617222 47.0412 40.9854 -6.48686e-06 -1.26872e-05 -1.28976 4.37369 -76.089 11.7543 -2.30145e-07 3.05095e-06 -0.0663013 -0.249933 -18.5211 -2.19251 6.46944 -1.45247e-06 177.704 6.31058 149.183 -39.0811 -0.00228153 -0.0401928 0.112894 -0.129471 38.7652 -40.9854 7.72618e-06 5.99936e-06 -1.91321 -2.01657 -56.2037 -11.7543 -5.6619e-06 -5.58687e-06 0.155388 -0.178113 -18.3121 
